<svg xmlns="http://www.w3.org/2000/svg" version="1.1" xmlns:xlink="http://www.w3.org/1999/xlink" width="512" height="512" x="0" y="0" viewBox="0 0 60 59" style="enable-background:new 0 0 512 512" xml:space="preserve" class=""><g><path fill="#ffffff" fill-rule="nonzero" d="m58.765 34.574-1.339-.974A27.868 27.868 0 0 0 49.26 7.706l.586-1.757a3 3 0 0 0-4.611-3.375l-1.464 1.065a27.876 27.876 0 0 0-27.542 0l-1.465-1.065a3 3 0 0 0-4.61 3.375l.586 1.757A27.868 27.868 0 0 0 2.574 33.6l-1.339.974A3 3 0 0 0 3 40h1.716a27.983 27.983 0 0 0 22.053 15.793l.385 1.156a3 3 0 0 0 5.692 0l.385-1.156A27.983 27.983 0 0 0 55.284 40H57a3 3 0 0 0 1.765-5.426zM56 28c0 1.44-.119 2.879-.357 4.3l-3.71-2.7c.04-.5.067-1.029.067-1.605a21.958 21.958 0 0 0-4.9-13.81l1.46-4.379A26.009 26.009 0 0 1 56 28zm-9.661-11.529A19.985 19.985 0 0 1 50 28c0 .069 0 .128-.005.2l-6.089-4.428zm.073-12.28a1 1 0 0 1 1.537 1.125L41.777 23.83l-.005.016-1.613 4.838-.009.029L38.388 34h-2.109l2.564-7.693.009-.023 1.7-5.1L44.078 10.6a1 1 0 0 0-1.537-1.125L33.4 16.127l-1.7-1.236zm-4.5 25.548L47.774 34H40.5zM25.829 34l-2.654-7.963L30 21.073l6.825 4.964L34.171 34zm12.987-13.935-3.715-2.7 6.092-4.432zM30 13.654l-6.339-4.61a20.137 20.137 0 0 1 12.678 0zM30 2c4.174 0 8.287 1.007 11.988 2.936l-3.7 2.691a22.115 22.115 0 0 0-16.576 0l-3.7-2.691A25.925 25.925 0 0 1 30 2zM12.41 4.193a1 1 0 0 1 1.178 0l15.8 11.492.023.017 3.4 2.472 5.338 3.882-.663 1.99-6.9-5.017-3.965-2.884-.017-.012-9.147-6.653a1 1 0 0 0-1.535 1.12l3.565 10.7-1.7 1.234-5.736-17.218a1 1 0 0 1 .359-1.123zM24.9 17.364l-3.715 2.7-2.377-7.133zM10.005 28.2c0-.068-.005-.127-.005-.2 0-4.129 1.279-8.156 3.661-11.529l2.433 7.3zM4 28a26.009 26.009 0 0 1 7.441-18.189L12.9 14.19A21.958 21.958 0 0 0 8 28c0 .576.027 1.1.067 1.605l-3.71 2.7A25.992 25.992 0 0 1 4 28zm-1.951 9.31a1 1 0 0 1 .363-1.119l15.45-11.236.023-.017 3.351-2.438.02-.014L26.6 18.6l1.7 1.236-6.892 5.013-3.728 2.711-.013.009-9.105 6.622A1 1 0 0 0 9.15 36h11.021l.666 2H3a1 1 0 0 1-.951-.69zM19.5 34h-7.274l5.858-4.261zm2 6 2.339 7.017A20.075 20.075 0 0 1 14.011 40zM6.939 40h4.647A22.031 22.031 0 0 0 24.6 49.3l1.464 4.392A26 26 0 0 1 6.939 40zm24.01 16.316a1 1 0 0 1-1.9 0l-5.877-17.63-1.323-3.968v-.012l-.007-.02-2.059-6.179 1.7-1.234 2.681 8.043 1.323 3.972.01.028 3.558 10.676a1 1 0 0 0 1.9 0L34.279 40h2.108zM32.171 40 30 46.513 27.829 40zm13.818 0a20.075 20.075 0 0 1-9.832 7.017L38.5 40zM33.932 53.691 35.4 49.3A22.031 22.031 0 0 0 48.414 40h4.647a26 26 0 0 1-19.129 13.691zM57.951 37.31A1 1 0 0 1 57 38H27.163l-.663-2h8.4a.577.577 0 0 0 .06-.01c.017 0 .031.01.048.01h4c.014 0 .026-.008.04-.008s.045.008.068.008H50.85a1 1 0 0 0 .588-1.809l-8.859-6.442.664-1.991 14.345 10.433a1 1 0 0 1 .363 1.119z" opacity="1" data-original="#000000" class=""></path></g></svg>